<?xml version="1.0" standalone="no"?>
<!DOCTYPE svg PUBLIC "-//W3C//DTD SVG 20010904//EN"
 "http://www.w3.org/TR/2001/REC-SVG-20010904/DTD/svg10.dtd">
<svg version="1.0" xmlns="http://www.w3.org/2000/svg"
 width="200.000000pt" height="200.000000pt" viewBox="0 0 200.000000 200.000000"
 preserveAspectRatio="xMidYMid meet">
<metadata>
Created by potrace 1.14, written by Peter Selinger 2001-2017
</metadata>
<g transform="translate(0.000000,200.000000) scale(0.100000,-0.100000)"
fill="#000000" stroke="none">
<path d="M1117 1754 c-1 -1 -25 -4 -52 -7 -72 -7 -191 -49 -265 -94 -99 -59
-260 -228 -260 -272 0 -6 -4 -11 -10 -11 -5 0 -10 -5 -10 -10 0 -6 -9 -29 -19
-53 -11 -23 -27 -70 -37 -104 -9 -35 -21 -63 -25 -63 -5 0 -9 4 -9 9 0 17 -95
45 -150 44 -67 -1 -154 -32 -158 -56 -7 -34 87 -109 160 -127 l46 -12 -33 -29
c-61 -53 -104 -210 -70 -256 12 -16 16 -16 60 2 55 20 119 74 142 119 l16 31
8 -25 c39 -134 73 -218 93 -232 6 -4 8 -8 3 -8 -22 0 107 -149 173 -200 25
-19 47 -38 50 -41 9 -12 123 -67 172 -83 94 -31 273 -42 357 -22 62 14 208 71
221 86 3 3 27 20 54 39 90 63 197 195 241 297 30 69 55 167 60 229 2 33 5 62
6 65 5 22 -7 168 -17 202 -3 9 -7 25 -9 35 -28 129 -148 307 -272 404 -29 23
-142 89 -153 89 -5 0 -21 5 -37 12 -38 15 -41 16 -96 28 -43 9 -174 19 -180
14z"/>
</g>
</svg>
